<?xml version="1.0" encoding="UTF-8"?>
<svg width="36px" height="36px" viewBox="0 0 36 36" version="1.1" xmlns="http://www.w3.org/2000/svg" xmlns:xlink="http://www.w3.org/1999/xlink">
    <!-- Generator: Sketch 52.2 (67145) - http://www.bohemiancoding.com/sketch -->
    <title>资质</title>
    <desc>Created with Sketch.</desc>
    <g id="手机端" stroke="none" stroke-width="1" fill="none" fill-rule="evenodd">
        <g id="首页" transform="translate(-434.000000, -1475.000000)" fill="#FFFFFF" fill-rule="nonzero">
            <g id="Group-10" transform="translate(434.000000, 1469.000000)">
                <g id="资质" transform="translate(0.000000, 6.000000)">
                    <path d="M35.7330544,27.3910664 L30.0011584,19.7729295 C30.9747907,17.909015 31.5330341,15.7950567 31.5330341,13.5495246 C31.5330341,6.09366064 25.4517043,0.0258944295 17.9769343,0.0258944295 C10.5043532,0.0258944295 4.42302348,6.09366064 4.42302348,13.5495246 C4.42302348,15.8082017 4.98783346,17.9353463 5.97249262,19.8080378 L0.266904323,27.3910664 C0.0383123946,27.6936904 -0.0254124888,28.0884118 0.093281852,28.448025 C0.209746009,28.8076793 0.495454964,29.086156 0.858104556,29.1936237 L5.81419215,30.6891892 L8.3065255,35.3600806 C8.48894473,35.7021808 8.831812,35.9302201 9.2186217,35.9696964 C9.25599761,35.9719216 9.29337352,35.9740643 9.33070815,35.9740643 C9.67795313,35.9740643 10.0076459,35.8183844 10.2296299,35.5486436 L17.1747356,27.0358212 C17.4428923,27.0533753 17.7065887,27.0774814 17.9769343,27.0774814 C18.2626432,27.0774814 18.5395967,27.0533754 18.8209279,27.0358212 L25.7704113,35.5486436 C25.9923954,35.8183844 26.3220468,35.9740643 26.6693331,35.9740643 C26.706709,35.9740643 26.7440849,35.9718803 26.7814608,35.9696964 C27.1682293,35.9302201 27.5111378,35.7021808 27.6935157,35.3600806 L30.1858491,30.6891892 L35.1419367,29.1936237 C35.5045863,29.0861972 35.7902952,28.8076793 35.9068007,28.448025 C36.0253712,28.0884118 35.961605,27.6936903 35.7330544,27.3910664 Z M9.53509871,32.732972 L7.63619574,29.1761108 C7.49111109,28.904186 7.24277809,28.7024367 6.94827242,28.6125232 L3.11746831,27.4568739 L7.31748862,21.8759268 C9.11529077,24.1631191 11.6317843,25.8538407 14.526332,26.6169937 L9.53509871,32.732972 Z M6.77902766,13.5495246 C6.77902766,7.39184481 11.8032179,2.37889438 17.976893,2.37889438 C24.152757,2.37889438 29.1769472,7.39184481 29.1769472,13.5495246 C29.1769472,19.7115724 24.152757,24.7244816 17.976893,24.7244816 C11.8032179,24.7245228 6.77902766,19.7115723 6.77902766,13.5495246 Z M29.0516863,28.6125232 C28.7571806,28.7024367 28.5088063,28.904186 28.363763,29.1761108 L26.46486,32.732972 L21.462641,26.6060326 C24.3571888,25.8363278 26.8692633,24.1412382 28.6604988,21.847494 L32.8824904,27.4569151 L29.0516863,28.6125232 Z" id="Shape"></path>
                </g>
            </g>
        </g>
    </g>
</svg>