<?xml version="1.0" encoding="UTF-8"?>
<svg width="35px" height="35px" viewBox="0 0 35 35" version="1.1" xmlns="http://www.w3.org/2000/svg" xmlns:xlink="http://www.w3.org/1999/xlink">
    <!-- Generator: Sketch 52.2 (67145) - http://www.bohemiancoding.com/sketch -->
    <title>联系</title>
    <desc>Created with Sketch.</desc>
    <g id="手机端" stroke="none" stroke-width="1" fill="none" fill-rule="evenodd">
        <g id="首页" transform="translate(-646.000000, -4351.000000)" fill="#666666" fill-rule="nonzero">
            <g id="联系" transform="translate(646.000000, 4351.000000)">
                <path d="M25.4779854,34.9829644 C23.2426845,34.9829644 20.3566581,33.4804366 18.3292884,32.219675 C15.614377,30.5315421 12.6894535,28.1957853 10.0932342,25.643563 L10.08375,25.6341759 L9.25954834,24.8022763 C6.72999831,22.1827333 4.41550263,19.2312201 2.74220835,16.4916199 C1.49290013,14.446055 0.00356655866,11.5341446 0.00356655866,9.27851984 C0.00356655866,6.86464528 1.71431728,4.30283445 2.44955994,3.31361161 C3.02345177,2.54129744 5.02837159,0.0219901181 6.73195917,0.0219901181 C7.43130606,0.0219901181 8.18463663,0.483968543 9.17471112,1.5201265 C10.0504554,2.43610642 10.8908242,3.57499787 11.4413858,4.36890622 C12.1809904,5.43475618 12.8648505,6.55080453 13.3676311,7.51154402 C14.1811881,9.06713059 14.2752694,9.73453571 14.2752694,10.1008713 C14.2752694,10.8402302 13.8923814,11.4817706 13.1376502,12.0072827 C12.6407121,12.3530715 12.0438902,12.6134506 11.4670371,12.8653693 C11.0777863,13.0353428 10.4564336,13.3063981 10.2193695,13.4970795 C10.3022459,13.8503619 10.6636445,14.7040168 11.6402731,16.1509476 C12.5505125,17.4994557 13.727589,18.9604871 14.7907756,20.0621931 C15.8827748,21.1350128 17.3304501,22.3230149 18.6673167,23.2412107 C20.1006657,24.2264853 20.9466369,24.5913706 21.2972708,24.6749271 C21.4859136,24.43582 21.7547115,23.8088636 21.9230654,23.4163814 C22.1725349,22.8341443 22.4308082,22.231844 22.7736386,21.7303837 C23.2946273,20.9686249 23.9301462,20.5826693 24.6632278,20.5826693 C25.0263072,20.5826693 25.6875574,20.6774661 27.2291538,21.4983672 C28.1814117,22.0055483 29.2875771,22.695716 30.3438807,23.4419641 C31.1306659,23.9975307 32.2593212,24.8454245 33.1673597,25.7287714 C34.1938501,26.7281467 34.6517711,27.4881329 34.6517711,28.1939321 C34.6517711,29.9128045 32.1552756,31.9360098 31.3899397,32.5147821 C30.4089893,33.2572028 27.8699551,34.9829644 25.4779854,34.9829644 Z M11.5256228,24.16972 C14.0163558,26.6177182 16.8131831,28.8521919 19.4027595,30.4621265 C21.9131811,32.0233533 24.1274728,32.9188269 25.4779854,32.9188269 C26.6809934,32.9188269 28.3955458,32.1775342 30.0654385,30.9360704 C30.7972797,30.3915425 31.4636121,29.7853746 31.9413417,29.229244 C32.3894584,28.7071161 32.5534103,28.3662826 32.5952287,28.2288211 C32.4217125,27.8532194 31.392781,26.6791569 28.9915273,25.0075822 C28.0493138,24.3517799 27.0753264,23.7493184 26.2489238,23.3107874 C25.2111483,22.7603776 24.7786786,22.6652585 24.6799553,22.649506 C24.6413383,22.6763376 24.5284888,22.7716178 24.3564533,23.0622932 C24.1641289,23.3876159 23.9794078,23.8188952 23.8005293,24.2358723 C23.5806328,24.7494189 23.3528529,25.2800878 23.0738505,25.7086678 C22.6198512,26.4052009 22.0624866,26.7587653 21.4171635,26.759007 C21.4054383,26.759007 21.393233,26.759007 21.3807875,26.7585235 C21.0667697,26.7517149 20.1106702,26.7312891 17.5150911,24.9476342 C16.0822624,23.9626012 14.5260195,22.685644 13.3531447,21.5310807 L13.3348167,21.5129109 C12.1907947,20.3287362 10.9253193,18.7589281 9.94913097,17.3132059 C8.18123518,14.6941061 8.16070617,13.7294587 8.15414326,13.4122337 C8.14021713,12.7493006 8.48692928,12.1773771 9.18435536,11.7110073 C9.61098256,11.4261737 10.1414153,11.1947211 10.6546006,10.9706815 C11.0677818,10.7903137 11.4948893,10.6038625 11.8173908,10.4099984 C12.1052772,10.2367615 12.2002788,10.1227878 12.2262502,10.0836281 C12.2108034,9.98387594 12.116522,9.54756075 11.5711227,8.50032366 C11.1367321,7.66665142 10.5392299,6.68379402 9.88974489,5.7332876 C8.23285779,3.30986484 7.06922718,2.2717328 6.69734397,2.09680386 C6.56100415,2.13910591 6.22333596,2.30444638 5.70574884,2.75679606 C5.15426683,3.23835429 4.55364328,3.91091626 4.01436661,4.64950965 C2.7838266,6.33409724 2.04954439,8.06441134 2.04954439,9.27823783 C2.04954439,10.6407257 2.93657364,12.8749174 4.48377261,15.4082448 C6.07959292,18.0213821 8.29388458,20.843572 10.7197892,23.356675 L11.5256228,24.16972 Z M23.7008456,16.7622724 C23.3438489,16.7622724 23.0276702,16.5043509 22.963402,16.1370081 C22.7798814,15.0872732 22.1775371,14.1749192 21.2668575,13.5685901 C20.3434522,12.9534783 19.2145569,12.7250474 18.0881025,12.925559 C17.6802836,12.9982379 17.291513,12.7232748 17.2197615,12.3116961 C17.1478499,11.9003996 17.4200494,11.5080382 17.8278683,11.4355607 C19.333289,11.1674867 20.8480337,11.4766138 22.0927399,12.3058544 C23.3506519,13.1435151 24.1843777,14.4108033 24.44017,15.8743326 C24.5120416,16.2859112 24.2398021,16.6782323 23.8320232,16.7507904 C23.7880438,16.7586465 23.7441046,16.7622724 23.7008456,16.7622724 Z M28.2145063,14.8086841 C27.8575096,14.8086841 27.5410908,14.550682 27.4770627,14.183581 C27.1210665,12.1460736 25.9542344,10.377446 24.191741,9.20370571 C22.4162819,8.02110217 20.2486507,7.58152366 18.0881426,7.96602894 C17.6803236,8.03854669 17.2918331,7.76362382 17.2198015,7.35232724 C17.14789,6.94095008 17.4200894,6.54830669 17.8279084,6.47582921 C20.3674228,6.02420472 22.9209034,6.54415705 25.0176234,7.94101031 C27.1276294,9.34604197 28.5255228,11.4698858 28.9536307,13.9208653 C29.0257423,14.3324439 28.7532628,14.7248858 28.3454438,14.7973633 C28.3015045,14.8049777 28.2577653,14.8086841 28.2145063,14.8086841 Z M34.2406708,14.244778 C33.8836341,14.244778 33.5669751,13.9864536 33.502947,13.6193928 C32.8954805,10.1426496 30.9062475,7.1252661 27.901449,5.12450102 C24.8839648,3.11475181 21.2021091,2.36737571 17.5343796,3.01999528 C17.1267607,3.09243248 16.7379901,2.8177513 16.6662386,2.40617272 C16.5944471,1.99487614 16.8666065,1.6023939 17.2744655,1.52995669 C21.3210813,0.809774724 25.3885462,1.63784701 28.7275715,3.86148331 C32.0796424,6.09402323 34.3000168,9.46617972 34.9797951,13.3567577 C35.0518667,13.7680543 34.7794272,14.1604559 34.3716082,14.2328931 C34.3276289,14.2409909 34.2838898,14.244778 34.2406708,14.244778 Z" id="Shape"></path>
            </g>
        </g>
    </g>
</svg>