<?xml version="1.0" encoding="UTF-8"?>
<svg width="39px" height="39px" viewBox="0 0 39 39" version="1.1" xmlns="http://www.w3.org/2000/svg" xmlns:xlink="http://www.w3.org/1999/xlink">
    <!-- Generator: Sketch 52.2 (67145) - http://www.bohemiancoding.com/sketch -->
    <title>产品</title>
    <desc>Created with Sketch.</desc>
    <g id="手机端" stroke="none" stroke-width="1" fill="none" fill-rule="evenodd">
        <g id="首页" transform="translate(-212.000000, -4347.000000)" fill="#666666" fill-rule="nonzero">
            <g id="产品" transform="translate(212.000000, 4347.000000)">
                <path d="M8.90941319,2.33312576 C5.27918087,2.33734942 2.33734942,5.27918087 2.33312576,8.90941319 C2.33734942,12.5396455 5.27918087,15.481477 8.90941319,15.4857006 L15.4857006,15.4857006 L15.4857006,8.90941319 C15.4857006,5.2227066 12.5976527,2.33312576 8.90941319,2.33312576 Z M15.6190659,17.8188263 L8.90941319,17.8188263 C3.99098162,17.8137567 0.00506968759,13.8278448 2.48689958e-14,8.90941319 C0.00506966614,3.99098161 3.99098161,0.00506966614 8.90941319,-2.54396162e-14 C13.9067785,-2.54396162e-14 17.8188264,3.91358084 17.8188263,8.90941319 L17.8188263,15.6205988 C17.8188263,16.7702994 16.7702994,17.8188263 15.6190659,17.8188263 Z M22.9986108,15.4857006 L29.5764311,15.4857006 C33.2066634,15.481477 36.1484949,12.5396455 36.1527186,8.90941319 C36.1527186,5.2227066 33.2646707,2.33312576 29.5764311,2.33312576 C25.8881916,2.33312576 23.0001437,5.2227066 23.0001437,8.90941319 L23.0001437,15.4857006 L22.9986108,15.4857006 Z M29.5764311,17.8188263 L22.8652455,17.8188263 C22.2780531,17.8323696 21.7108677,17.6051741 21.2954048,17.1900008 C20.8799419,16.7748274 20.6523511,16.2078005 20.665485,15.6205988 L20.665485,8.90941319 C20.665485,3.91358084 24.5805988,-5.7062044e-16 29.5764311,-5.7062044e-16 C34.5722634,-5.7062044e-16 38.4858443,3.91358084 38.4858443,8.90941319 C38.4807746,13.8278448 34.4948627,17.8137567 29.5764311,17.8188263 Z M9.16081439,23.0645269 C5.42754381,23.0687524 2.40242112,26.0945609 2.39904191,29.8278323 C2.40411029,33.5599065 5.42873919,36.5838497 9.16081439,36.5880719 C12.8260599,36.5880719 15.9225868,33.4915449 15.9225868,29.8278323 L15.9225868,23.0675928 L9.16081439,23.0645269 Z M9.16081439,38.9886467 C4.10353783,38.9835768 0.00506994041,34.8851089 0,29.8278323 C0.00422503615,24.7699571 4.10293998,20.6705563 9.16081439,20.665485 L16.059018,20.665485 C17.3497485,20.665485 18.3216287,21.6388982 18.3216287,22.9265629 L18.3216287,29.8278323 C18.3157157,34.8847591 14.2177412,38.9827336 9.16081439,38.9886467 Z M23.0660599,23.0645269 L23.0660599,29.8278323 C23.0660599,33.4915449 26.1625868,36.5880719 29.8262994,36.5880719 C33.4930779,36.5880719 36.5865389,33.4915449 36.5865389,29.8278323 C36.5865389,26.1610539 33.4930778,23.0645269 29.8262994,23.0645269 L23.0660599,23.0645269 Z M29.8262994,38.9886467 C24.7690229,38.9835768 20.670555,34.8851089 20.665485,29.8278323 L20.665485,22.9265629 C20.665485,21.6388982 21.6373653,20.665485 22.9265629,20.665485 L29.8278323,20.665485 C34.8851081,20.6714012 38.9828902,24.7705549 38.9871138,29.8278323 C38.9820453,34.8845111 34.8845102,38.9827321 29.8278323,38.9886467 L29.8262994,38.9886467 Z" id="Shape"></path>
            </g>
        </g>
    </g>
</svg>