<?xml version="1.0" encoding="UTF-8"?>
<svg width="48px" height="48px" viewBox="0 0 48 48" version="1.1" xmlns="http://www.w3.org/2000/svg" xmlns:xlink="http://www.w3.org/1999/xlink">
    <!-- Generator: Sketch 52.2 (67145) - http://www.bohemiancoding.com/sketch -->
    <title>Group 2</title>
    <desc>Created with Sketch.</desc>
    <g id="手机端" stroke="none" stroke-width="1" fill="none" fill-rule="evenodd">
        <g id="首页" transform="translate(-351.000000, -3818.000000)">
            <g id="Group-2" transform="translate(351.000000, 3818.000000)">
                <g id="Group-8-Copy" stroke="#FFFFFF">
                    <g id="Group-7-Copy">
                        <rect id="Rectangle" x="0.5" y="0.5" width="47" height="47" rx="23.5"></rect>
                    </g>
                </g>
                <g id="邮件" transform="translate(11.000000, 14.000000)" fill="#FFFFFF">
                    <path d="M13.0092041,11.8698509 L24.3827615,0.204663826 C24.0886053,0.0824159564 23.7665483,0.0147964015 23.431796,0.0147964015 L2.53591752,0.0147964015 C2.21386053,0.0147964015 1.90446999,0.0772076231 1.62044123,0.189038826 L13.0092041,11.8698213 L13.0092041,11.8698509 Z" id="Path"></path>
                    <path d="M13.0092041,14.2236624 L0.370241477,1.26062382 C0.134397195,1.65595407 -1.42108547e-14,2.11893348 -1.42108547e-14,2.61570786 L-1.42108547e-14,17.3889974 C-1.42108547e-14,18.8247218 1.1360862,19.9899384 2.53591752,19.9899384 L23.431796,19.9899384 C24.8316273,19.9899384 25.9677135,18.8247218 25.9677135,17.3889974 L25.9677135,2.61570786 C25.9677135,2.13452888 25.8383944,1.68196615 25.6152166,1.29444839 L13.009233,14.2236624 L13.0092041,14.2236624 Z" id="Path"></path>
                </g>
            </g>
        </g>
    </g>
</svg>