<?xml version="1.0" encoding="UTF-8"?>
<svg width="36px" height="40px" viewBox="0 0 36 40" version="1.1" xmlns="http://www.w3.org/2000/svg" xmlns:xlink="http://www.w3.org/1999/xlink">
    <!-- Generator: Sketch 52.2 (67145) - http://www.bohemiancoding.com/sketch -->
    <title>企业实力</title>
    <desc>Created with Sketch.</desc>
    <g id="手机端" stroke="none" stroke-width="1" fill="none" fill-rule="evenodd">
        <g id="首页" transform="translate(-357.000000, -4346.000000)" fill="#39a9ff">
            <g id="企业实力" transform="translate(357.000000, 4346.000000)">
                <path d="M17.7222901,39.9207921 C9.54968572,37.7425743 0.00836847391,30.930693 0.00836847391,18.9108911 L0.00836847391,5.16831684 L2.94415842,4.23762375 C7.05029701,2.91089109 11.7118553,1.42574258 17.761963,0.0396039453 L18,0 L18.238037,0.0594059375 C24.3278175,1.44554457 28.9893758,2.93069305 33.1153508,4.25742574 L35.9916315,5.16831684 L35.9916315,18.9108911 C35.9916315,30.9306931 26.4503143,37.7425743 18.2777099,39.9207921 L18,40 L17.7222901,39.9207921 Z M2.21021092,18.9108911 C2.21021092,29.5247525 10.700198,35.6831683 18.0198364,37.7227723 C25.3196384,35.6831683 33.8294619,29.5247525 33.8294619,18.9108911 L33.8294619,6.77227723 L32.4805855,6.33663367 C28.4736289,5.04950496 23.9310891,3.58415844 18.0198364,2.23762375 C12.1284202,3.5841584 7.56604393,5.04950492 3.53925098,6.33663367 L2.19037453,6.77227723 L2.21021092,18.9108911 Z" id="Shape" fill-rule="nonzero"></path>
                <path d="M15.3022471,26.6930693 C15.0047008,26.6930693 14.726991,26.5742574 14.5286268,26.3762376 L8.71655619,20.5940594 C8.518192,20.3960396 8.3991735,20.1188119 8.3991735,19.8217822 C8.3991735,19.5247525 8.518192,19.2475248 8.71655619,19.049505 C8.91492038,18.8514852 9.19263025,18.7326733 9.49017651,18.7326733 C9.78772277,18.7326733 10.0654326,18.8514852 10.2637968,19.049505 L15.2824107,24.0594059 L25.7163668,13.6435644 C25.914731,13.4455446 26.1924408,13.3267327 26.4899871,13.3267327 C26.7875334,13.3267326 27.0652432,13.4455445 27.2636074,13.6435644 C27.7000086,14.0792079 27.7000086,14.7722773 27.2636074,15.1881188 L16.056031,26.3762376 C15.8576668,26.5742574 15.5799569,26.6930693 15.3022471,26.6930693 Z" id="Path"></path>
            </g>
        </g>
    </g>
</svg>