<?xml version="1.0" encoding="UTF-8"?>
<svg width="29px" height="35px" viewBox="0 0 29 35" version="1.1" xmlns="http://www.w3.org/2000/svg" xmlns:xlink="http://www.w3.org/1999/xlink">
    <!-- Generator: Sketch 52.2 (67145) - http://www.bohemiancoding.com/sketch -->
    <title>红旗标记</title>
    <desc>Created with Sketch.</desc>
    <g id="手机端" stroke="none" stroke-width="1" fill="none" fill-rule="evenodd">
        <g id="首页" transform="translate(-132.000000, -1475.000000)" fill-rule="nonzero" stroke="#FFFFFF" stroke-width="2">
            <g id="Group-9" transform="translate(132.000000, 1469.000000)">
                <g id="红旗标记" transform="translate(0.000000, 6.000000)">
                    <path d="M27.8224704,22.0279876 C27.9324576,21.9721458 27.994758,21.8719189 27.9947489,21.7602124 L27.9947489,6.14681634 C27.9947489,6.05314481 27.9371601,5.95359001 27.8343298,5.89294643 C27.7921048,5.86736135 27.7266767,5.84997662 27.6566335,5.84997662 C27.5981485,5.84997662 27.5429213,5.86284903 27.4989551,5.88495686 C25.5134383,6.88698556 24.0655636,7.28620953 21.6054411,7.28620953 C19.2135471,7.28620953 17.7394068,6.89562316 15.8457634,5.95435574 C15.6821338,5.87302088 15.565025,5.81358499 15.2522056,5.65382899 C14.8045588,5.42346776 14.3861782,5.07663383 13.8571681,4.54291125 C13.6410117,4.32482934 12.7757872,3.40321546 12.5563678,3.17973215 C11.1134992,1.71013961 9.96673523,1.02660452 8.57512056,1.02660452 C6.43888611,1.02660449 4.97264896,1.35073123 3.49450715,1.97103028 L2.19107436,2.52398485 L1.81282712,1.57394234 L1.67668929,1.23172949 C1.62470665,1.10640449 1.50475744,1.02660452 1.36122971,1.02660452 C1.17295479,1.02660451 1.02601211,1.17001944 1.02601211,1.32919071 L1.02601211,25.2366778 L1.89063929,25.2366778 L1.90121125,19.0435007 L2.44466243,18.7654332 C4.59844058,17.6634102 6.06447341,17.2450932 8.57512057,17.2450932 C10.3545629,17.2450932 11.6062421,18.1183698 13.1205837,19.8942901 C13.2612757,20.0592844 13.7837283,20.6876801 13.905739,20.8303755 C14.172145,21.1419459 14.3753278,21.3589022 14.5584424,21.5232494 C14.6993894,21.6497507 14.8205873,21.7372508 14.9227391,21.7896966 C17.3902772,23.0595734 18.8211778,23.5017851 21.6054411,23.5017851 C24.1981299,23.501785 25.7626286,23.0670065 27.8224704,22.027988 Z M27.8224704,22.027988 C27.8226359,22.0279046 27.8228013,22.0278211 27.8229668,22.0277377 L27.8219744,22.0282389 C27.8221399,22.0281552 27.8223052,22.0280715 27.8224704,22.0279876 Z M1.88422278,30.1488904 L1.02601211,30.1488904 L1.02601211,33.6736426 C1.02601211,33.7947619 1.22670353,33.9733157 1.45177647,33.9733157 C1.67830344,33.9733157 1.87769974,33.7961935 1.87770145,33.6717915 L1.88422278,30.1488904 Z" id="Shape"></path>
                </g>
            </g>
        </g>
    </g>
</svg>