<?xml version="1.0" encoding="UTF-8"?>
<svg width="36px" height="36px" viewBox="0 0 36 36" version="1.1" xmlns="http://www.w3.org/2000/svg" xmlns:xlink="http://www.w3.org/1999/xlink">
    <!-- Generator: Sketch 52.2 (67145) - http://www.bohemiancoding.com/sketch -->
    <title>资讯</title>
    <desc>Created with Sketch.</desc>
    <g id="手机端" stroke="none" stroke-width="1" fill="none" fill-rule="evenodd">
        <g id="首页" transform="translate(-501.000000, -4350.000000)" fill="#39a9ff" fill-rule="nonzero">
            <g id="资讯" transform="translate(501.000000, 4350.000000)">
                <path d="M25.4086814,35.9951581 L3.12154064,35.9951581 C1.40256948,35.9951581 0.00408447859,34.6043067 0.00408447859,32.8949198 L0.00408447859,3.10772122 C0.00408447859,1.3981331 1.40256948,0.00728174672 3.12154064,0.00728174672 L25.4086814,0.00728174672 C27.1276526,0.00728174672 28.5261376,1.3981331 28.5261376,3.10772122 L28.5261376,32.8947186 C28.5261376,34.6043067 27.1276526,35.9951581 25.4086814,35.9951581 Z M3.12154064,2.01950882 C2.51820119,2.01950882 2.02735561,2.50767511 2.02735561,3.10772122 L2.02735561,32.8947186 C2.02735561,33.4945635 2.51820119,33.9827298 3.12154064,33.9827298 L25.4086814,33.9827298 C26.0120209,33.9827298 26.5028665,33.4945635 26.5028665,32.8947186 L26.5028665,3.10772122 C26.5028665,2.50767511 26.0120209,2.01950882 25.4086814,2.01950882 L3.12154064,2.01950882 Z M32.8446075,35.9951581 L21.5776176,35.9951581 C21.0187901,35.9951581 20.565982,35.5448217 20.565982,34.9890445 C20.565982,34.4332674 21.0187901,33.982931 21.5776176,33.982931 L32.8446075,33.982931 C33.447947,33.982931 33.9387925,33.4947647 33.9387925,32.8947186 L33.9387925,6.03792629 C33.9387925,5.43788017 33.447947,4.94971389 32.8446075,4.94971389 L31.3761173,4.94971389 C30.8172898,4.94971389 30.3644818,4.49917624 30.3644818,3.94360035 C30.3644818,3.38802445 30.8172898,2.93748681 31.3761173,2.93748681 L32.8446075,2.93748681 C34.5635787,2.93748681 35.9620637,4.32833817 35.9620637,6.03792629 L35.9620637,32.8947186 C35.9620637,34.6043067 34.5635787,35.9951581 32.8446075,35.9951581 Z M22.4856616,7.49558358 L6.04456044,7.49558358 C5.48573295,7.49558358 5.03292487,7.04504594 5.03292487,6.48947004 C5.03292487,5.93389415 5.48573295,5.48335651 6.04456044,5.48335651 L22.4856616,5.48335651 C23.0444891,5.48335651 23.4972972,5.93389415 23.4972972,6.48947004 C23.4972972,7.04504594 23.0442868,7.49558358 22.4856616,7.49558358 Z M22.4856616,14.5745984 L6.04456044,14.5745984 C5.48573295,14.5745984 5.03292487,14.1240608 5.03292487,13.5684849 C5.03292487,13.012909 5.48573295,12.5623714 6.04456044,12.5623714 L22.4856616,12.5623714 C23.0444891,12.5623714 23.4972972,13.012909 23.4972972,13.5684849 C23.4972972,14.1240608 23.0442868,14.5745984 22.4856616,14.5745984 Z M22.4856616,21.5616545 L6.04456044,21.5616545 C5.48573295,21.5616545 5.03292487,21.1113181 5.03292487,20.555541 C5.03292487,19.9997638 5.48573295,19.5494274 6.04456044,19.5494274 L22.4856616,19.5494274 C23.0444891,19.5494274 23.4972972,19.9997638 23.4972972,20.555541 C23.4972972,21.1113181 23.0442868,21.5616545 22.4856616,21.5616545 Z M12.1378438,28.8245869 L6.08097932,28.8245869 C5.52215183,28.8245869 5.06934375,28.3742505 5.06934375,27.8184734 C5.06934375,27.2626962 5.52215183,26.8123598 6.08097932,26.8123598 L12.1378438,26.8123598 C12.6966713,26.8123598 13.1494793,27.2626962 13.1494793,27.8184734 C13.1494793,28.3742505 12.6966713,28.8245869 12.1378438,28.8245869 Z" id="Shape"></path>
            </g>
        </g>
    </g>
</svg>