<?xml version="1.0" encoding="UTF-8"?>
<svg width="41px" height="39px" viewBox="0 0 41 39" version="1.1" xmlns="http://www.w3.org/2000/svg" xmlns:xlink="http://www.w3.org/1999/xlink">
    <!-- Generator: Sketch 52.2 (67145) - http://www.bohemiancoding.com/sketch -->
    <title>首页</title>
    <desc>Created with Sketch.</desc>
    <g id="手机端" stroke="none" stroke-width="1" fill="none" fill-rule="evenodd">
        <g id="首页" transform="translate(-67.000000, -4347.000000)" fill="#39a9ff">
            <g transform="translate(67.000000, 4347.000000)">
                <path d="M19.3186089,2.78343732 C19.5797424,2.5243717 20.0149649,2.35166131 20.4501874,2.35166131 C20.8854099,2.35166131 21.3206324,2.5243717 21.581766,2.78343732 L38.9906661,20.1408332 C39.4258886,20.5726092 40.2092891,20.5726092 40.6445116,20.1408332 C41.0797341,19.7090572 41.0797341,18.9318604 40.6445116,18.5000843 L23.2356115,1.14268847 C22.5392554,0.451846831 21.4947215,0.0200708182 20.4501874,0.0200708571 C19.4056534,0.0200708571 18.3611194,0.45184687 17.6647634,1.14268847 L0.342907741,18.5864395 C-0.0923147596,19.0182155 -0.0923147596,19.7954124 0.342907741,20.2271884 C0.778130242,20.6589644 1.56153075,20.6589644 1.99675325,20.2271884 L19.3186089,2.78343732 Z" id="Path"></path>
                <path d="M34.1161741,31.53972 C34.1161741,33.0941137 33.7679961,34.3030865 33.07164,35.0802833 C32.027106,36.1165458 31.156661,36.634677 30.1991715,36.634677 L10.8752923,36.634677 C9.83075831,36.634677 8.43804631,36.0301906 7.56760131,35.0802833 C6.69715631,34.1303761 6.00080029,32.6623376 6.00080029,31.53972 L6.00080029,15.9957835 C6.00080029,15.391297 5.4785333,14.8731658 4.86922177,14.8731658 C4.25991025,14.8731658 3.73764326,15.391297 3.73764326,15.9957835 L3.73764326,31.53972 C3.73764326,33.2668241 4.60808826,35.2529938 5.9137558,36.634677 C7.2194233,38.0163602 9.13440233,38.8799123 10.8752923,38.8799123 L30.1991715,38.8799123 C31.853017,38.8799123 33.3327736,38.1027155 34.7254856,36.634677 C35.9441086,35.4257042 36.4663756,33.6122449 36.4663756,31.53972 L36.4663756,14.8731658 C36.4663756,14.2686794 35.9441086,13.7505482 35.3347971,13.7505482 C34.7254856,13.7505482 34.2032186,14.2686794 34.2032186,14.8731658 L34.2032186,31.53972 L34.1161741,31.53972 Z" id="Path"></path>
                <path d="M14.9663839,36.634677 L16.0979624,37.7572946 L16.0979624,26.2720526 C16.0979624,23.8541069 18.0129414,21.8679372 20.4501874,21.8679372 C22.8874335,21.8679372 24.8024125,23.8541069 24.8024125,26.2720526 L24.8024125,37.7572946 L25.933991,36.634677 L14.9663839,36.634677 Z M27.2396585,38.9662675 L27.2396585,26.2720526 C27.2396585,22.5587789 24.2801455,19.6227019 20.5372319,19.622702 C16.7943184,19.622702 13.8348053,22.6451341 13.8348053,26.2720526 L13.8348053,38.8799123 L27.2396585,38.8799123 L27.2396585,38.9662675 Z" id="Shape" fill-rule="nonzero"></path>
            </g>
        </g>
    </g>
</svg>